<svg width="16" height="16" viewBox="0 0 16 16" fill="none" xmlns="http://www.w3.org/2000/svg">
<path d="M6.73082 3.54041C6.59298 3.28975 6.36445 3.10133 6.0921 3.0138C5.81976 2.92628 5.52425 2.94628 5.26618 3.0697C4.04364 3.66 3.31446 4.89688 3.70035 6.14103C4.13028 7.52164 4.81583 8.80916 5.7213 9.93657C6.61866 11.0623 7.71537 12.0134 8.95673 12.7425C10.0728 13.3956 11.4338 12.9623 12.277 11.8902C12.4544 11.6646 12.5396 11.3801 12.5154 11.0942C12.4913 10.8083 12.3596 10.5422 12.1469 10.3496L11.3122 9.59571C11.1449 9.44404 10.9359 9.34613 10.7123 9.31469C10.4887 9.28324 10.2608 9.31972 10.0581 9.41938L8.51221 10.1802L8.18434 9.93059C7.77098 9.61448 7.39618 9.25091 7.06765 8.84735C6.74605 8.43762 6.47603 7.98992 6.26367 7.51431L6.09518 7.14206L7.17227 5.79839C7.31421 5.61985 7.39989 5.40316 7.41842 5.17582C7.43696 4.94849 7.38751 4.72078 7.27637 4.52161L6.73234 3.54153L6.73082 3.54041ZM4.6872 1.86837C5.25176 1.59727 5.89862 1.55235 6.49523 1.74281C7.09184 1.93326 7.59303 2.34467 7.8961 2.89273L8.44013 3.87281C8.67983 4.30328 8.7861 4.79532 8.74542 5.28635C8.70474 5.77739 8.51895 6.24523 8.21168 6.63039L7.65607 7.32302C7.77395 7.53978 7.92585 7.78508 8.1095 8.01747C8.29255 8.2459 8.49592 8.44832 8.67839 8.61076L9.46881 8.22096C9.91084 8.00385 10.4078 7.9244 10.8955 7.9929C11.3832 8.0614 11.8391 8.2747 12.2042 8.60518L13.0389 9.35904C13.5028 9.778 13.7903 10.3574 13.8433 10.9803C13.8964 11.6031 13.711 12.2228 13.3247 12.7142C12.2012 14.1431 10.1392 14.9782 8.28448 13.8925C6.90205 13.081 5.68063 12.0222 4.68117 10.7689C3.67106 9.51144 2.90623 8.07539 2.42648 6.53549C1.79112 4.48364 3.05494 2.65577 4.6874 1.86968L4.6872 1.86837Z" fill="#7F7F7F"/>
</svg>
