<svg width="64" height="64" viewBox="0 0 64 64" fill="none" xmlns="http://www.w3.org/2000/svg">
<rect width="64" height="64" rx="32" fill="#A6D1F9"/>
<path d="M30.6828 21.6525C30.4609 21.0483 30.0162 20.552 29.4399 20.2653C28.8637 19.9785 28.1995 19.9232 27.5838 20.1105C24.6648 21.0105 22.6248 23.5155 23.0628 26.4135C23.5526 29.6299 24.6425 32.7257 26.2758 35.5395C27.8915 38.3469 30.0098 40.8332 32.5248 42.8745C34.7868 44.7045 37.9608 44.2005 40.1988 42.1005C40.6695 41.6587 40.9552 41.0547 40.998 40.4105C41.0409 39.7663 40.8378 39.1298 40.4298 38.6295L38.8278 36.6705C38.5069 36.2766 38.0751 35.9882 37.5883 35.8427C37.1015 35.6972 36.5822 35.7013 36.0978 35.8545L32.4018 37.0245L31.7568 36.3585C30.9441 35.5156 30.2332 34.5802 29.6388 33.5715C29.0618 32.5514 28.6125 31.4643 28.3008 30.3345L28.0518 29.4495L30.9018 26.8245C31.2778 26.4753 31.5417 26.0222 31.6597 25.5228C31.7778 25.0234 31.7447 24.5001 31.5648 24.0195L30.6858 21.6555L30.6828 21.6525ZM26.7018 17.2425C28.0492 16.8302 29.5033 16.9489 30.7661 17.5742C32.0289 18.1994 33.0048 19.284 33.4938 20.6055L34.3728 22.9695C34.7605 24.0081 34.8307 25.1385 34.5742 26.2171C34.3178 27.2956 33.7465 28.2736 32.9328 29.0265L31.4628 30.3795C31.6518 30.9015 31.9068 31.4985 32.2368 32.0775C32.5668 32.6475 32.9508 33.1665 33.3018 33.5895L35.1918 32.9895C36.2484 32.6559 37.3809 32.6471 38.4425 32.9643C39.5042 33.2815 40.4463 33.91 41.1468 34.7685L42.7488 36.7275C43.6391 37.8162 44.0829 39.2024 43.9904 40.6057C43.898 42.0091 43.2762 43.325 42.2508 44.2875C39.2688 47.0865 34.3998 48.2475 30.6408 45.2055C27.8398 42.9332 25.4806 40.1652 23.6808 37.0395C21.8587 33.901 20.6426 30.4481 20.0958 26.8605C19.3758 22.0815 22.8048 18.4425 26.7018 17.2455V17.2425Z" fill="black"/>
</svg>
