<svg width="64" height="64" viewBox="0 0 64 64" fill="none" xmlns="http://www.w3.org/2000/svg">
<rect width="64" height="64" rx="32" fill="#A6D1F9"/>
<path d="M30.3127 32C30.3127 32.4476 30.4905 32.8768 30.807 33.1932C31.1234 33.5097 31.5526 33.6875 32.0002 33.6875C32.4478 33.6875 32.877 33.5097 33.1934 33.1932C33.5099 32.8768 33.6877 32.4476 33.6877 32C33.6877 31.5524 33.5099 31.1232 33.1934 30.8068C32.877 30.4903 32.4478 30.3125 32.0002 30.3125C31.5526 30.3125 31.1234 30.4903 30.807 30.8068C30.4905 31.1232 30.3127 31.5524 30.3127 32ZM37.344 32C37.344 32.4476 37.5217 32.8768 37.8382 33.1932C38.1547 33.5097 38.5839 33.6875 39.0315 33.6875C39.479 33.6875 39.9082 33.5097 40.2247 33.1932C40.5412 32.8768 40.719 32.4476 40.719 32C40.719 31.5524 40.5412 31.1232 40.2247 30.8068C39.9082 30.4903 39.479 30.3125 39.0315 30.3125C38.5839 30.3125 38.1547 30.4903 37.8382 30.8068C37.5217 31.1232 37.344 31.5524 37.344 32ZM23.2814 32C23.2814 32.4476 23.4592 32.8768 23.7757 33.1932C24.0922 33.5097 24.5214 33.6875 24.9689 33.6875C25.4165 33.6875 25.8457 33.5097 26.1622 33.1932C26.4787 32.8768 26.6564 32.4476 26.6564 32C26.6564 31.5524 26.4787 31.1232 26.1622 30.8068C25.8457 30.4903 25.4165 30.3125 24.9689 30.3125C24.5214 30.3125 24.0922 30.4903 23.7757 30.8068C23.4592 31.1232 23.2814 31.5524 23.2814 32ZM46.5268 25.8969C45.7322 24.009 44.5932 22.3145 43.1412 20.859C41.6994 19.4119 39.9878 18.2617 38.1033 17.4734C36.1697 16.6613 34.1166 16.25 32.0002 16.25H31.9299C29.7994 16.2605 27.7357 16.6824 25.7951 17.5121C23.9268 18.3085 22.2312 19.4607 20.8029 20.9047C19.365 22.3566 18.2365 24.0441 17.4561 25.925C16.6475 27.8727 16.2397 29.9434 16.2502 32.0738C16.2621 34.5153 16.8397 36.9208 17.9377 39.1016V44.4453C17.9377 44.8742 18.1081 45.2856 18.4114 45.5888C18.7146 45.8921 19.126 46.0625 19.5549 46.0625H24.9022C27.0829 47.1605 29.4884 47.7381 31.9299 47.75H32.0037C34.1096 47.75 36.1522 47.3422 38.0752 46.5441C39.9502 45.7653 41.6554 44.6284 43.0955 43.1973C44.5475 41.7594 45.69 40.0789 46.4881 38.2051C47.3178 36.2645 47.7397 34.2008 47.7502 32.0703C47.7607 29.9293 47.3459 27.8516 46.5268 25.8969ZM41.2147 41.2953C38.7502 43.7352 35.4807 45.0781 32.0002 45.0781H31.9404C29.8205 45.0676 27.7147 44.5402 25.8549 43.5488L25.5596 43.3906H20.6096V38.4406L20.4514 38.1453C19.46 36.2855 18.9326 34.1797 18.9221 32.0598C18.908 28.5547 20.2475 25.2641 22.7049 22.7855C25.1588 20.307 28.4389 18.9359 31.9439 18.9219H32.0037C33.7615 18.9219 35.4666 19.2629 37.0732 19.9379C38.6412 20.5953 40.0475 21.541 41.2568 22.7504C42.4627 23.9562 43.4119 25.366 44.0693 26.934C44.7514 28.5582 45.0924 30.2809 45.0854 32.0598C45.0643 35.5613 43.6897 38.8414 41.2147 41.2953Z" fill="black"/>
</svg>
