<svg width="14" height="14" viewBox="0 0 14 14" fill="none" xmlns="http://www.w3.org/2000/svg">
<g clip-path="url(#clip0_589_5261)">
<path d="M13.9532 5.47262C13.8962 5.30183 13.7889 5.1511 13.6444 5.03923C13.5 4.92736 13.325 4.85927 13.141 4.84346L9.64828 4.55062L8.27917 1.38422C8.20789 1.21808 8.08766 1.07616 7.93361 0.976333C7.77956 0.876508 7.59859 0.823242 7.41348 0.823242C7.22837 0.823242 7.0474 0.876508 6.89335 0.976333C6.7393 1.07616 6.61907 1.21808 6.54779 1.38422L5.18279 4.55062L1.68591 4.84518C1.50126 4.86027 1.32531 4.92804 1.18011 5.04C1.03491 5.15195 0.926935 5.30311 0.869717 5.47451C0.812499 5.64592 0.808588 5.82993 0.858475 6.00349C0.908362 6.17704 1.00983 6.33241 1.15014 6.45011L3.80309 8.70479L3.00797 12.0531C2.96593 12.2283 2.97792 12.4117 3.04246 12.5803C3.107 12.7489 3.22122 12.8953 3.37083 13.0011C3.52044 13.107 3.69882 13.1676 3.88365 13.1753C4.06848 13.1831 4.25156 13.1377 4.41002 13.0448L7.40936 11.2718L10.4152 13.0448C10.5736 13.1377 10.7567 13.1831 10.9415 13.1753C11.1264 13.1676 11.3047 13.107 11.4544 13.0011C11.604 12.8953 11.7182 12.7489 11.7827 12.5803C11.8473 12.4117 11.8593 12.2283 11.8172 12.0531L11.0227 8.70136L13.675 6.45011C13.8153 6.332 13.9166 6.17619 13.9661 6.00227C14.0156 5.82835 14.0111 5.64407 13.9532 5.47262ZM13.0581 5.7586L10.4058 8.00985C10.2767 8.11906 10.1806 8.26043 10.128 8.41876C10.0754 8.57708 10.0681 8.74637 10.107 8.90841L10.9039 12.2624L7.90043 10.4893C7.7539 10.4025 7.58563 10.3566 7.41407 10.3566C7.2425 10.3566 7.07424 10.4025 6.9277 10.4893L3.92836 12.2624L4.71995 8.9107C4.75885 8.74866 4.75159 8.57937 4.69895 8.42104C4.64631 8.26272 4.55028 8.12135 4.42119 8.01214L1.76765 5.76204C1.76744 5.76033 1.76744 5.7586 1.76765 5.75689L5.26336 5.4629C5.43403 5.44827 5.59735 5.3886 5.73571 5.29032C5.87407 5.19205 5.98222 5.0589 6.04848 4.90523L7.41348 1.74285L8.77788 4.90523C8.84415 5.0589 8.9523 5.19205 9.09066 5.29032C9.22901 5.3886 9.39234 5.44827 9.56301 5.4629L13.0593 5.75689V5.76089L13.0581 5.7586Z" fill="#FEC338"/>
<path d="M13.0581 5.7586L10.4058 8.00985C10.2767 8.11906 10.1806 8.26043 10.128 8.41876C10.0754 8.57708 10.0681 8.74637 10.107 8.90841L10.9039 12.2624L7.90043 10.4893C7.7539 10.4025 7.58563 10.3566 7.41407 10.3566C7.2425 10.3566 7.07424 10.4025 6.9277 10.4893L3.92836 12.2624L4.71995 8.9107C4.75885 8.74866 4.75159 8.57937 4.69895 8.42104C4.64631 8.26272 4.55028 8.12135 4.42119 8.01214L1.76765 5.76204C1.76744 5.76033 1.76744 5.7586 1.76765 5.75689L5.26336 5.4629C5.43403 5.44827 5.59735 5.3886 5.73571 5.29032C5.87407 5.19205 5.98222 5.0589 6.04848 4.90523L7.41348 1.74285L8.77788 4.90523C8.84415 5.0589 8.9523 5.19205 9.09066 5.29032C9.22901 5.3886 9.39234 5.44827 9.56301 5.4629L13.0593 5.75689V5.76089L13.0581 5.7586Z" fill="#FEC338"/>
</g>
<defs>
<clipPath id="clip0_589_5261">
<rect width="14" height="14" fill="white"/>
</clipPath>
</defs>
</svg>
