<svg width="253" height="93" viewBox="0 0 253 93" fill="none" xmlns="http://www.w3.org/2000/svg">
<path d="M33.1295 73.833H34.1895V87.833H33.1295V81.133H24.9895V87.833H23.9295V73.833H24.9895V80.133H33.1295V73.833ZM41.9599 77.613C44.9999 77.613 46.8999 80.133 46.8999 82.873C46.8999 83.033 46.8799 83.193 46.8799 83.353H37.8199C38.0599 85.613 39.7799 87.093 42.0599 87.093C43.6999 87.093 44.9399 86.333 45.5199 85.273L46.3999 85.793C45.5799 87.153 44.0199 88.053 42.0399 88.053C38.9599 88.053 36.7799 85.853 36.7799 82.833C36.7799 79.893 38.8999 77.613 41.9599 77.613ZM41.9599 78.573C39.6799 78.573 38.0199 80.153 37.8199 82.373H45.8599C45.6399 79.933 43.9199 78.573 41.9599 78.573ZM49.2373 87.833V73.233H50.2373V87.833H49.2373ZM58.6193 77.613C61.4793 77.613 63.7993 79.873 63.7993 82.833C63.7993 85.793 61.4793 88.053 58.6193 88.053C56.6793 88.053 55.1393 87.053 54.3193 85.513V91.833H53.3193V77.833H54.3193V80.153C55.1393 78.613 56.6793 77.613 58.6193 77.613ZM58.5593 87.093C60.9393 87.093 62.7993 85.213 62.7993 82.833C62.7993 80.453 60.9393 78.573 58.5593 78.573C56.1793 78.573 54.3193 80.453 54.3193 82.833C54.3193 85.213 56.1793 87.093 58.5593 87.093ZM66.6946 80.453C66.6946 83.133 72.7546 81.553 72.7546 85.213C72.7546 86.853 71.3146 88.053 69.1746 88.053C67.1746 88.053 65.8546 87.113 65.3746 85.833L66.2346 85.333C66.5946 86.413 67.6746 87.093 69.1746 87.093C70.5746 87.093 71.7546 86.473 71.7546 85.213C71.7546 82.493 65.6946 84.053 65.6946 80.453C65.6946 78.873 67.0546 77.613 69.0946 77.613C70.7146 77.613 71.9546 78.393 72.4946 79.613L71.6546 80.093C71.2346 79.053 70.1946 78.573 69.0946 78.573C67.7946 78.573 66.6946 79.253 66.6946 80.453ZM87.8268 77.833H88.9068L84.5868 88.753C83.8268 90.673 82.3468 91.973 80.6268 91.833V90.893C81.9668 91.013 82.9868 90.013 83.6068 88.553L83.8268 88.013L79.2268 77.833H80.3068L84.3468 86.733L87.8268 77.833ZM94.8915 88.053C91.9715 88.053 89.6315 85.793 89.6315 82.833C89.6315 79.873 91.9715 77.613 94.8915 77.613C97.7915 77.613 100.131 79.873 100.131 82.833C100.131 85.793 97.7915 88.053 94.8915 88.053ZM94.8915 87.093C97.2715 87.093 99.1115 85.213 99.1115 82.833C99.1115 80.453 97.2715 78.573 94.8915 78.573C92.5115 78.573 90.6515 80.453 90.6515 82.833C90.6515 85.213 92.5115 87.093 94.8915 87.093ZM109.738 77.833H110.738V87.833H109.738V85.933C108.978 87.413 107.698 88.053 106.158 88.053C103.778 88.053 102.278 86.473 102.278 84.053V77.833H103.298V84.053C103.298 85.893 104.358 87.093 106.238 87.093C108.198 87.093 109.738 85.813 109.738 83.113V77.833ZM128.039 77.833H129.039V87.353C129.039 90.353 126.819 92.053 124.059 92.053C121.719 92.053 120.059 91.113 119.339 89.653L120.219 89.153C120.739 90.213 121.859 91.093 124.059 91.093C126.559 91.093 128.039 89.633 128.039 87.353V85.513C127.219 87.053 125.679 88.053 123.739 88.053C120.879 88.053 118.559 85.793 118.559 82.833C118.559 79.873 120.879 77.613 123.739 77.613C125.679 77.613 127.219 78.613 128.039 80.153V77.833ZM123.799 87.093C126.179 87.093 128.039 85.213 128.039 82.833C128.039 80.453 126.179 78.573 123.799 78.573C121.419 78.573 119.559 80.453 119.559 82.833C119.559 85.213 121.419 87.093 123.799 87.093ZM136.628 77.613C139.668 77.613 141.568 80.133 141.568 82.873C141.568 83.033 141.548 83.193 141.548 83.353H132.488C132.728 85.613 134.448 87.093 136.728 87.093C138.368 87.093 139.608 86.333 140.188 85.273L141.068 85.793C140.248 87.153 138.688 88.053 136.708 88.053C133.628 88.053 131.448 85.853 131.448 82.833C131.448 79.893 133.568 77.613 136.628 77.613ZM136.628 78.573C134.348 78.573 132.688 80.153 132.488 82.373H140.528C140.308 79.933 138.588 78.573 136.628 78.573ZM148.732 78.813H145.752V85.313C145.752 87.073 146.692 87.113 148.732 86.933V87.833C146.112 88.233 144.732 87.593 144.732 85.313V78.813H142.532V77.833H144.732V75.333L145.752 75.033V77.833H148.732V78.813ZM161.044 88.053C158.124 88.053 155.784 85.793 155.784 82.833C155.784 79.873 158.124 77.613 161.044 77.613C163.944 77.613 166.284 79.873 166.284 82.833C166.284 85.793 163.944 88.053 161.044 88.053ZM161.044 87.093C163.424 87.093 165.264 85.213 165.264 82.833C165.264 80.453 163.424 78.573 161.044 78.573C158.664 78.573 156.804 80.453 156.804 82.833C156.804 85.213 158.664 87.093 161.044 87.093ZM175.89 77.833H176.89V87.833H175.89V85.933C175.13 87.413 173.85 88.053 172.31 88.053C169.93 88.053 168.43 86.473 168.43 84.053V77.833H169.45V84.053C169.45 85.893 170.51 87.093 172.39 87.093C174.35 87.093 175.89 85.813 175.89 83.113V77.833ZM185.099 78.813H182.119V85.313C182.119 87.073 183.059 87.113 185.099 86.933V87.833C182.479 88.233 181.099 87.593 181.099 85.313V78.813H178.899V77.833H181.099V75.333L182.119 75.033V77.833H185.099V78.813ZM197.951 78.813H194.971V85.313C194.971 87.073 195.911 87.113 197.951 86.933V87.833C195.331 88.233 193.951 87.593 193.951 85.313V78.813H191.751V77.833H193.951V75.333L194.971 75.033V77.833H197.951V78.813ZM204.931 77.613C207.311 77.613 208.811 79.193 208.811 81.613V87.833H207.791V81.613C207.791 79.773 206.731 78.573 204.851 78.573C202.891 78.573 201.351 79.853 201.351 82.553V87.833H200.351V73.833H201.351V79.733C202.111 78.253 203.391 77.613 204.931 77.613ZM216.14 77.613C219.18 77.613 221.08 80.133 221.08 82.873C221.08 83.033 221.06 83.193 221.06 83.353H212C212.24 85.613 213.96 87.093 216.24 87.093C217.88 87.093 219.12 86.333 219.7 85.273L220.58 85.793C219.76 87.153 218.2 88.053 216.22 88.053C213.14 88.053 210.96 85.853 210.96 82.833C210.96 79.893 213.08 77.613 216.14 77.613ZM216.14 78.573C213.86 78.573 212.2 80.153 212 82.373H220.04C219.82 79.933 218.1 78.573 216.14 78.573ZM224.417 79.793C225.097 78.213 226.397 77.693 227.757 77.693V78.653C226.037 78.653 224.417 79.713 224.417 82.273V87.833H223.417V77.833H224.417V79.793ZM233.679 77.613C236.719 77.613 238.619 80.133 238.619 82.873C238.619 83.033 238.599 83.193 238.599 83.353H229.539C229.779 85.613 231.499 87.093 233.779 87.093C235.419 87.093 236.659 86.333 237.239 85.273L238.119 85.793C237.299 87.153 235.739 88.053 233.759 88.053C230.679 88.053 228.499 85.853 228.499 82.833C228.499 79.893 230.619 77.613 233.679 77.613ZM233.679 78.573C231.399 78.573 229.739 80.153 229.539 82.373H237.579C237.359 79.933 235.639 78.573 233.679 78.573ZM241.216 84.233L241.016 77.833V73.833H242.216V77.833L242.016 84.233H241.216ZM241.616 88.033C241.116 88.033 240.716 87.633 240.716 87.133C240.716 86.633 241.116 86.233 241.616 86.233C242.116 86.233 242.516 86.633 242.516 87.133C242.516 87.633 242.116 88.033 241.616 88.033Z" fill="black"/>
<path d="M39.96 4.6H48.6L28.584 55H21.096L1.008 4.6H9.648L23.76 40.456L24.768 43.84L25.848 40.456L39.96 4.6ZM62.7913 4.6H71.4313L91.3753 55H82.5193L77.6953 42.688H56.4553L51.7033 55H42.8473L62.7913 4.6ZM67.9753 17.416L67.0393 14.68L66.1033 17.416L59.1193 35.416H75.1033L67.9753 17.416ZM141.563 4.6H150.707V55H142.643V20.008L141.203 24.112L127.595 55H120.899L107.363 24.112L105.995 20.008V55H97.9313V4.6H107.003L122.987 39.52L124.211 42.616L125.579 39.52L141.563 4.6ZM184.751 3.664C192.311 3.664 198.503 6.112 203.327 11.08C208.151 15.976 210.599 22.168 210.599 29.728C210.599 37.288 208.151 43.552 203.327 48.52C198.503 53.488 192.311 55.936 184.751 55.936C177.191 55.936 170.927 53.488 166.031 48.52C161.207 43.552 158.759 37.288 158.759 29.728C158.759 22.168 161.207 15.976 166.031 11.08C170.927 6.112 177.191 3.664 184.751 3.664ZM167.255 29.728C167.255 35.128 168.839 39.592 172.079 43.12C175.319 46.648 179.567 48.376 184.751 48.376C189.935 48.376 194.111 46.648 197.351 43.12C200.591 39.592 202.175 35.128 202.175 29.728C202.175 24.328 200.591 19.936 197.351 16.48C194.111 12.952 189.935 11.224 184.751 11.224C179.567 11.224 175.319 12.952 172.079 16.48C168.839 19.936 167.255 24.328 167.255 29.728ZM232.694 3.664C241.91 3.664 247.598 8.776 247.958 18.28H239.75C239.678 13.6 236.798 10.864 232.478 10.864C228.23 10.864 225.638 13.384 225.638 17.488C225.638 19.576 226.286 21.088 227.654 22.168C229.022 23.248 231.542 24.472 235.142 25.84C240.398 27.64 244.07 29.728 246.23 32.032C248.462 34.264 249.542 37.288 249.542 41.032C249.542 45.64 248.03 49.312 245.006 51.976C241.982 54.64 238.094 55.936 233.342 55.936C222.47 55.936 216.422 49.672 216.206 39.88H224.342C224.558 45.64 227.726 48.808 233.414 48.808C238.526 48.808 241.406 45.928 241.406 41.608C241.406 37.792 238.742 35.632 231.542 33.256C226.718 31.6 223.19 29.656 220.886 27.424C218.654 25.192 217.502 22.096 217.502 18.136C217.502 13.888 218.87 10.432 221.606 7.768C224.342 5.032 228.014 3.664 232.694 3.664Z" fill="#40013F"/>
<circle cx="184.78" cy="29.7803" r="26.7803" fill="url(#paint0_linear_589_2920)"/>
<circle cx="184.515" cy="29.5151" r="20.6818" fill="white"/>
<path d="M179.37 38.0536C179.567 36.5428 178.781 35.1963 177.614 35.0461C176.447 34.896 175.341 35.9989 175.143 37.5097C174.946 39.0204 175.732 40.3669 176.899 40.5171C178.066 40.6673 179.172 39.5643 179.37 38.0536Z" stroke="url(#paint1_linear_589_2920)" stroke-width="0.487019" stroke-miterlimit="10"/>
<path d="M173.402 43.6398C172.94 43.8025 172.307 43.3633 171.989 42.8754C171.641 42.342 171.897 42.0915 171.677 41.0831C171.441 39.9999 171.058 39.8666 171.005 39.0566C170.966 38.4614 171.15 37.9702 171.405 37.4367C172.389 35.3777 173.73 34.1482 174.946 32.4079C175.143 32.1282 175.641 31.2109 176.641 29.3828C178.586 25.821 178.786 25.3103 179.396 24.2401C180.314 22.6333 182.189 19.3512 185.606 16.788C187.842 15.1161 191.094 13.4799 191.697 14.1565C192.101 14.6086 191.393 16.1862 190.261 16.9994C189.579 17.4906 189.189 17.3767 188.386 17.7118C187.822 17.946 187.088 18.3884 185.101 21.2931C183.589 23.5018 182.835 24.6207 182.95 25.3786C183.048 26.0357 183.442 26.7155 185.796 28.3647C187.127 29.295 189.032 30.5018 191.514 31.6695C191.966 32.0111 192.655 32.4112 193.481 32.3591C193.95 32.3298 194.042 32.1802 194.36 32.2453C195.504 32.4697 195.861 34.6588 195.911 35.0004C196.006 35.6444 196.084 36.1714 195.819 36.3536C195.258 36.7406 193.619 35.2736 192.855 34.6328C191.209 33.2439 188.661 31.4971 184.737 29.9651C184.655 29.9195 183.281 29.1779 182.238 29.8284C181.678 30.1765 181.412 30.8043 181.268 31.1556C181.202 31.315 181.025 31.7639 180.989 32.3786C180.927 33.4391 181.32 34.2685 181.494 34.5873C182.114 35.7388 183.192 36.7667 184.225 37.3424C184.445 37.466 184.743 37.6774 184.92 38.032C185.16 38.5102 185.101 39.1022 184.435 40.5562C184.101 41.2848 183.599 42.2671 182.861 43.3796C182.848 43.4512 182.838 43.5552 182.884 43.6561C182.973 43.848 183.199 43.9098 183.346 43.9553C183.891 44.1212 184.487 44.3034 184.619 44.6449C184.681 44.8043 184.638 44.9995 184.55 45.1263C184.409 45.328 184.143 45.354 182.999 45.315C181.861 45.2727 181.615 45.2272 181.356 45.0353C181.268 44.9702 181.038 44.7978 180.917 44.5083C180.714 44.0269 180.917 43.4934 181.333 42.716C182.337 40.8327 182.979 40.4814 182.907 39.5933C182.874 39.1932 182.714 38.9037 182.537 38.5817C182.238 38.0418 181.868 37.7067 180.825 36.9521C179.694 36.1356 179.13 35.7258 178.464 35.3907C177.268 34.789 176.638 34.7304 176.287 34.7239C175.966 34.7174 175.658 34.7109 175.291 34.8378C174.625 35.0687 174.196 35.7225 173.369 37.0204C172.802 37.9116 172.697 38.2174 172.651 38.5362C172.559 39.1737 172.723 39.6909 172.766 39.821C172.959 40.4033 173.192 40.4228 173.668 41.3141C173.95 41.8443 174.097 42.1078 174.107 42.394C174.12 42.8104 173.923 43.1226 173.858 43.2235C173.763 43.3601 173.625 43.5618 173.402 43.6398Z" stroke="url(#paint2_linear_589_2920)" stroke-width="0.487019" stroke-miterlimit="10"/>
<path d="M187.789 22.9714C188.091 23.0593 188.76 23.3 189.317 23.9343C190.166 24.9068 190.101 26.0681 190.081 26.3121" stroke="url(#paint3_linear_589_2920)" stroke-width="0.487019" stroke-miterlimit="10"/>
<path d="M189.835 20.0441C190.356 20.3531 191.376 21.0589 192.127 22.3503C193.081 23.9962 193.015 25.5836 192.96 26.1723" stroke="url(#paint4_linear_589_2920)" stroke-width="0.487019" stroke-miterlimit="10"/>
<path d="M192.196 18.1152C192.786 18.5153 194.216 19.6018 195.042 21.5925C195.773 23.3522 195.658 24.9136 195.563 25.6227" stroke="url(#paint5_linear_589_2920)" stroke-width="0.487019" stroke-miterlimit="10"/>
<path d="M190.852 36.4933C190.875 37.0918 190.842 37.9083 190.609 38.8353C190.311 40.0226 189.812 40.9171 189.429 41.4863" stroke="url(#paint6_linear_589_2920)" stroke-width="0.487019" stroke-miterlimit="10"/>
<path d="M192.189 38.3246C192.209 38.7344 192.189 39.2646 192.068 39.8664C191.901 40.6861 191.596 41.3237 191.347 41.7498" stroke="url(#paint7_linear_589_2920)" stroke-width="0.487019" stroke-miterlimit="10"/>
<defs>
<linearGradient id="paint0_linear_589_2920" x1="135.182" y1="29.3411" x2="220.464" y2="29.3411" gradientUnits="userSpaceOnUse">
<stop stop-color="#FF3CAC"/>
<stop offset="0.473958" stop-color="#784BA0"/>
<stop offset="1" stop-color="#2B86C5"/>
</linearGradient>
<linearGradient id="paint1_linear_589_2920" x1="176.559" y1="42.8433" x2="179.495" y2="29.335" gradientUnits="userSpaceOnUse">
<stop stop-color="#FF3CAC"/>
<stop offset="0.473958" stop-color="#784BA0"/>
<stop offset="1" stop-color="#2B86C5"/>
</linearGradient>
<linearGradient id="paint2_linear_589_2920" x1="160.349" y1="29.4083" x2="200.156" y2="29.4083" gradientUnits="userSpaceOnUse">
<stop stop-color="#FF3CAC"/>
<stop offset="0.473958" stop-color="#784BA0"/>
<stop offset="1" stop-color="#2B86C5"/>
</linearGradient>
<linearGradient id="paint3_linear_589_2920" x1="186.809" y1="24.6144" x2="190.473" y2="24.6144" gradientUnits="userSpaceOnUse">
<stop stop-color="#FF3CAC"/>
<stop offset="0.473958" stop-color="#784BA0"/>
<stop offset="1" stop-color="#2B86C5"/>
</linearGradient>
<linearGradient id="paint4_linear_589_2920" x1="188.492" y1="23.0579" x2="193.511" y2="23.0579" gradientUnits="userSpaceOnUse">
<stop stop-color="#FF3CAC"/>
<stop offset="0.473958" stop-color="#784BA0"/>
<stop offset="1" stop-color="#2B86C5"/>
</linearGradient>
<linearGradient id="paint5_linear_589_2920" x1="190.731" y1="21.8074" x2="196.204" y2="21.8074" gradientUnits="userSpaceOnUse">
<stop stop-color="#FF3CAC"/>
<stop offset="0.473958" stop-color="#784BA0"/>
<stop offset="1" stop-color="#2B86C5"/>
</linearGradient>
<linearGradient id="paint6_linear_589_2920" x1="188.82" y1="38.9489" x2="191.095" y2="38.9489" gradientUnits="userSpaceOnUse">
<stop stop-color="#FF3CAC"/>
<stop offset="0.473958" stop-color="#784BA0"/>
<stop offset="1" stop-color="#2B86C5"/>
</linearGradient>
<linearGradient id="paint7_linear_589_2920" x1="190.985" y1="40.0091" x2="192.337" y2="40.0091" gradientUnits="userSpaceOnUse">
<stop stop-color="#FF3CAC"/>
<stop offset="0.473958" stop-color="#784BA0"/>
<stop offset="1" stop-color="#2B86C5"/>
</linearGradient>
</defs>
</svg>
