<svg width="25" height="25" viewBox="0 0 25 25" fill="none" xmlns="http://www.w3.org/2000/svg">
<g filter="url(#filter0_d_795_357)">
<path d="M5.36495 2.18877L11.7983 8.6221L18.1983 2.2221C18.3397 2.07163 18.51 1.95126 18.699 1.86821C18.888 1.78515 19.0918 1.74113 19.2983 1.73877C19.7403 1.73877 20.1642 1.91436 20.4768 2.22692C20.7894 2.53949 20.965 2.96341 20.965 3.40544C20.9688 3.60977 20.9309 3.81275 20.8535 4.00191C20.7762 4.19106 20.6609 4.36241 20.5149 4.50544L14.0316 10.9054L20.5149 17.3888C20.7896 17.6575 20.9507 18.0214 20.965 18.4054C20.965 18.8475 20.7894 19.2714 20.4768 19.5839C20.1642 19.8965 19.7403 20.0721 19.2983 20.0721C19.0859 20.0809 18.874 20.0455 18.676 19.968C18.478 19.8905 18.2983 19.7727 18.1483 19.6221L11.7983 13.1888L5.38162 19.6054C5.24079 19.7509 5.07256 19.867 4.88662 19.9471C4.70068 20.0272 4.50073 20.0697 4.29829 20.0721C3.85626 20.0721 3.43233 19.8965 3.11977 19.5839C2.80721 19.2714 2.63162 18.8475 2.63162 18.4054C2.62773 18.2011 2.66564 17.9981 2.74303 17.809C2.82041 17.6198 2.93563 17.4485 3.08162 17.3054L9.56495 10.9054L3.08162 4.4221C2.80693 4.15337 2.64585 3.78946 2.63162 3.40544C2.63162 2.96341 2.80721 2.53949 3.11977 2.22692C3.43233 1.91436 3.85626 1.73877 4.29829 1.73877C4.69829 1.74377 5.08162 1.90544 5.36495 2.18877Z" fill="#414141"/>
<path d="M11.7983 8.55139L5.40031 2.15341C5.10776 1.86087 4.71197 1.69394 4.29891 1.68877L4.29891 1.68877H4.29829C3.843 1.68877 3.40636 1.86963 3.08442 2.19157C2.76248 2.51351 2.58162 2.95015 2.58162 3.40544H2.58158L2.58165 3.40729C2.59636 3.80401 2.76273 4.17997 3.04645 4.45765C3.04652 4.45771 3.04659 4.45778 3.04665 4.45784L9.49401 10.9052L3.04663 17.2697C3.0466 17.2698 3.04657 17.2698 3.04654 17.2698L3.04649 17.2699L11.7983 8.55139ZM11.7983 8.55139L18.1624 2.1873M11.7983 8.55139L14.0672 10.8703M20.5149 17.3888C20.7896 17.6575 20.9507 18.0214 20.965 18.4054C20.965 18.8475 20.7894 19.2714 20.4768 19.5839C20.1642 19.8965 19.7403 20.0721 19.2983 20.0721L19.3004 20.1221C19.3 20.1221 19.2997 20.1221 19.2993 20.1221C19.0804 20.131 18.8619 20.0944 18.6578 20.0146C18.4533 19.9346 18.2678 19.8129 18.1129 19.6574L18.1127 19.6572L11.7981 13.2597L5.41754 19.6402L20.5501 17.3532L20.5503 17.3534L20.5149 17.3888ZM20.5149 17.3888L20.5499 17.353L14.1026 10.9057M20.5149 17.3888L14.067 10.9408L14.1026 10.9057M14.1026 10.9057L14.0672 10.8703M14.1026 10.9057L20.5499 4.54115L20.5149 4.50544M14.0672 10.8703L20.5149 4.50544M14.0672 10.8703L18.1983 2.2221M20.5149 4.50544L20.5501 4.54102L20.5501 4.54104C20.7009 4.39327 20.8199 4.21625 20.8998 4.02084C20.9797 3.8255 21.0189 3.6159 21.015 3.40488C21.0148 2.94979 20.834 2.51338 20.5121 2.19157C20.1902 1.86963 19.7536 1.68877 19.2983 1.68877L19.2977 1.68877C19.0845 1.69121 18.874 1.73667 18.6789 1.82243C18.4839 1.90809 18.3083 2.03219 18.1624 2.1873M20.5149 4.50544C20.6609 4.36241 20.7762 4.19106 20.8535 4.00191C20.9309 3.81275 20.9688 3.60977 20.965 3.40544C20.965 2.96341 20.7894 2.53949 20.4768 2.22692C20.1642 1.91436 19.7403 1.73877 19.2983 1.73877C19.0918 1.74113 18.888 1.78515 18.699 1.86821C18.51 1.95126 18.3397 2.07163 18.1983 2.2221M18.1624 2.1873C18.1622 2.18749 18.162 2.18768 18.1618 2.18787L18.1983 2.2221M18.1624 2.1873L18.1629 2.18675L18.1983 2.2221" stroke="#414141" stroke-width="0.1"/>
</g>
<defs>
<filter id="filter0_d_795_357" x="-1.46875" y="-2.36133" width="26.5342" height="26.5347" filterUnits="userSpaceOnUse" color-interpolation-filters="sRGB">
<feFlood flood-opacity="0" result="BackgroundImageFix"/>
<feColorMatrix in="SourceAlpha" type="matrix" values="0 0 0 0 0 0 0 0 0 0 0 0 0 0 0 0 0 0 127 0" result="hardAlpha"/>
<feOffset/>
<feGaussianBlur stdDeviation="2"/>
<feComposite in2="hardAlpha" operator="out"/>
<feColorMatrix type="matrix" values="0 0 0 0 0 0 0 0 0 0 0 0 0 0 0 0 0 0 0.1 0"/>
<feBlend mode="normal" in2="BackgroundImageFix" result="effect1_dropShadow_795_357"/>
<feBlend mode="normal" in="SourceGraphic" in2="effect1_dropShadow_795_357" result="shape"/>
</filter>
</defs>
</svg>
