<svg width="12" height="12" viewBox="0 0 12 12" fill="none" xmlns="http://www.w3.org/2000/svg">
<path d="M10.1799 4.27588L7.69939 1.82109L8.51649 1.00282C8.74022 0.778772 9.01512 0.666748 9.34118 0.666748C9.66685 0.666748 9.94155 0.778772 10.1653 1.00282L10.9824 1.82109C11.2061 2.04513 11.3228 2.31555 11.3326 2.63234C11.3423 2.94873 11.2353 3.21896 11.0116 3.443L10.1799 4.27588ZM1.25015 11.3334C1.08478 11.3334 0.946263 11.2773 0.834593 11.1651C0.722534 11.0533 0.666504 10.9145 0.666504 10.7489V9.0978C0.666504 9.01987 0.681095 8.94447 0.710277 8.87161C0.739459 8.79835 0.783232 8.7325 0.841596 8.67406L6.85311 2.65396L9.33359 5.13798L3.32208 11.1581C3.26371 11.2165 3.19815 11.2604 3.12539 11.2896C3.05224 11.3188 2.97675 11.3334 2.89893 11.3334H1.25015Z" fill="#424141"/>
</svg>
