<svg width="14" height="12" viewBox="0 0 14 12" fill="none" xmlns="http://www.w3.org/2000/svg">
<path d="M0.0476001 1.47112L6.2601 7.60257C6.44389 7.78406 6.68937 7.89181 6.94903 7.90495C7.20869 7.9181 7.46406 7.8357 7.6657 7.67372L7.7455 7.60257L13.9538 1.47526C13.9741 1.55125 13.9874 1.62862 13.9944 1.70806L14 1.82895V10.1184C14.0001 10.467 13.8667 10.8027 13.6266 11.0583C13.3864 11.3139 13.0572 11.4704 12.705 11.4965L12.6 11.5H1.4C1.0468 11.5001 0.706603 11.3685 0.447616 11.1315C0.188629 10.8945 0.0299903 10.5696 0.00350008 10.222L0 10.1184V1.82895C0 1.74605 0.00699998 1.66592 0.021 1.58717L0.0476001 1.47112ZM12.6 0.44737C12.6847 0.44737 12.768 0.454278 12.8485 0.468784L12.9675 0.495725L7.0035 6.38125L1.0374 0.494343C1.1144 0.473619 1.1942 0.459804 1.2754 0.452896L1.4 0.44737H12.6Z" fill="black"/>
</svg>
