<svg width="16" height="16" viewBox="0 0 16 16" fill="none" xmlns="http://www.w3.org/2000/svg">
<g opacity="0.5">
<path d="M13.5 14C13.4343 14.0001 13.3693 13.9872 13.3086 13.962C13.2479 13.9369 13.1929 13.9 13.1465 13.8534L2.14654 2.85342C2.05673 2.75889 2.0074 2.63301 2.00907 2.50263C2.01074 2.37225 2.06328 2.24768 2.15548 2.15548C2.24768 2.06328 2.37225 2.01074 2.50263 2.00907C2.63301 2.0074 2.75889 2.05673 2.85342 2.14654L13.8534 13.1465C13.9233 13.2165 13.9709 13.3055 13.9902 13.4025C14.0094 13.4995 13.9995 13.6 13.9617 13.6913C13.9239 13.7826 13.8598 13.8607 13.7776 13.9156C13.6955 13.9706 13.5988 13.9999 13.5 14ZM7.74998 9.87029L6.13154 8.25186C6.12227 8.24266 6.11035 8.2366 6.09745 8.23453C6.08456 8.23245 6.07134 8.23447 6.05965 8.2403C6.04796 8.24613 6.03839 8.25547 6.03229 8.26701C6.02618 8.27856 6.02384 8.29173 6.02561 8.30467C6.09095 8.72455 6.2881 9.11279 6.58857 9.41326C6.88905 9.71374 7.27728 9.91089 7.69717 9.97623C7.71011 9.97799 7.72328 9.97566 7.73482 9.96955C7.74637 9.96345 7.75571 9.95388 7.76154 9.94219C7.76736 9.9305 7.76938 9.91728 7.76731 9.90438C7.76524 9.89149 7.75918 9.87957 7.74998 9.87029ZM8.24998 6.12967L9.87092 7.74998C9.88017 7.75931 9.89212 7.76548 9.90508 7.76763C9.91804 7.76977 9.93135 7.76778 9.94311 7.76193C9.95487 7.75609 9.96449 7.74668 9.97061 7.73506C9.97672 7.72343 9.97902 7.71017 9.97717 7.69717C9.912 7.27671 9.7147 6.88791 9.41384 6.58706C9.11299 6.2862 8.72419 6.0889 8.30373 6.02373C8.29071 6.02172 8.27739 6.02388 8.26567 6.02989C8.25395 6.03591 8.24443 6.04547 8.23846 6.05722C8.2325 6.06897 8.23041 6.0823 8.23248 6.09531C8.23454 6.10832 8.24067 6.12035 8.24998 6.12967Z" fill="black"/>
<path d="M15.3437 8.5425C15.4472 8.38012 15.5019 8.19146 15.5014 7.99892C15.5008 7.80638 15.445 7.61804 15.3406 7.45625C14.5137 6.1775 13.4409 5.09125 12.2384 4.31469C10.9062 3.45469 9.4375 3 7.99 3C7.22691 3.00105 6.469 3.12547 5.74562 3.36844C5.72538 3.37517 5.70719 3.38698 5.6928 3.40273C5.6784 3.41848 5.66828 3.43765 5.6634 3.45842C5.65851 3.47919 5.65902 3.50086 5.66488 3.52138C5.67074 3.5419 5.68175 3.56057 5.69687 3.57562L7.17312 5.05188C7.18846 5.06724 7.20753 5.07834 7.22846 5.0841C7.24939 5.08985 7.27146 5.09005 7.2925 5.08469C7.79289 4.96274 8.31625 4.97168 8.81219 5.11063C9.30812 5.24959 9.75993 5.51388 10.1241 5.87807C10.4883 6.24225 10.7526 6.69406 10.8916 7.19C11.0305 7.68594 11.0394 8.2093 10.9175 8.70969C10.9122 8.73068 10.9124 8.75268 10.9182 8.77355C10.9239 8.79443 10.935 8.81344 10.9503 8.82875L13.0737 10.9537C13.0958 10.9759 13.1254 10.9889 13.1567 10.9903C13.1879 10.9917 13.2185 10.9813 13.2425 10.9613C14.0599 10.2646 14.7682 9.44924 15.3437 8.5425ZM8 11C7.54586 11 7.09764 10.8969 6.68913 10.6985C6.28063 10.5001 5.9225 10.2115 5.64175 9.85458C5.361 9.49761 5.16496 9.08156 5.06841 8.6378C4.97186 8.19404 4.97732 7.73416 5.08437 7.29281C5.08968 7.27182 5.08945 7.24982 5.0837 7.22895C5.07795 7.20807 5.06687 7.18905 5.05156 7.17375L2.96281 5.08406C2.94066 5.06189 2.91099 5.04884 2.87968 5.04751C2.84837 5.04618 2.8177 5.05666 2.79375 5.07688C2.03156 5.72719 1.325 6.51844 0.679061 7.44312C0.565994 7.60541 0.503723 7.79764 0.500162 7.9954C0.496601 8.19315 0.55191 8.3875 0.659061 8.55375C1.48437 9.84531 2.54625 10.9331 3.73031 11.6991C5.06437 12.5625 6.4975 13 7.99 13C8.76079 12.9979 9.52658 12.8762 10.26 12.6391C10.2804 12.6325 10.2988 12.6209 10.3134 12.6052C10.3281 12.5895 10.3384 12.5703 10.3434 12.5494C10.3485 12.5286 10.3481 12.5068 10.3423 12.4862C10.3365 12.4655 10.3255 12.4467 10.3103 12.4316L8.82687 10.9484C8.81157 10.9331 8.79255 10.9221 8.77168 10.9163C8.75081 10.9105 8.7288 10.9103 8.70781 10.9156C8.47606 10.9718 8.23845 11.0001 8 11Z" fill="black"/>
</g>
</svg>
