<svg width="20" height="21" viewBox="0 0 20 21" fill="none" xmlns="http://www.w3.org/2000/svg">
<path d="M7.879 6.21041C9.05 5.18541 10.95 5.18541 12.121 6.21041C13.293 7.23541 13.293 8.89741 12.121 9.92241C11.918 10.1014 11.691 10.2484 11.451 10.3644C10.706 10.7254 10.001 11.3634 10.001 12.1914V12.9414M19 10.6914C19 11.8733 18.7672 13.0436 18.3149 14.1356C17.8626 15.2275 17.1997 16.2196 16.364 17.0554C15.5282 17.8911 14.5361 18.554 13.4442 19.0063C12.3522 19.4586 11.1819 19.6914 10 19.6914C8.8181 19.6914 7.64778 19.4586 6.55585 19.0063C5.46392 18.554 4.47177 17.8911 3.63604 17.0554C2.80031 16.2196 2.13738 15.2275 1.68508 14.1356C1.23279 13.0436 1 11.8733 1 10.6914C1 8.30446 1.94821 6.01527 3.63604 4.32745C5.32387 2.63962 7.61305 1.69141 10 1.69141C12.3869 1.69141 14.6761 2.63962 16.364 4.32745C18.0518 6.01527 19 8.30446 19 10.6914ZM10 15.9414H10.008V15.9494H10V15.9414Z" stroke="black" stroke-width="1.5" stroke-linecap="round" stroke-linejoin="round"/>
</svg>
