<svg width="20" height="20" viewBox="0 0 20 20" fill="none" xmlns="http://www.w3.org/2000/svg">
<path d="M10 6V10L12 12" stroke="#131313" stroke-width="1.5" stroke-linecap="round" stroke-linejoin="round"/>
<path d="M1 9.08795C1.22467 6.88801 2.25349 4.84757 3.89017 3.35592C5.52685 1.86428 7.65682 1.02584 9.87371 1.00059C12.0906 0.975332 14.2392 1.76502 15.9096 3.21899C17.58 4.67296 18.6553 6.68943 18.9303 8.88368C19.2053 11.0779 18.6607 13.2964 17.4005 15.1157C16.1404 16.9351 14.2527 18.228 12.0978 18.7478C9.94292 19.2676 7.67157 18.9779 5.71713 17.934C3.76269 16.8901 2.26197 15.165 1.50129 13.0879M1 18.0879V13.0879H6.0129" stroke="#131313" stroke-width="1.5" stroke-linecap="round" stroke-linejoin="round"/>
</svg>
