<svg width="19" height="19" viewBox="0 0 19 19" fill="none" xmlns="http://www.w3.org/2000/svg">
<path d="M11.6845 6.66667V3.125C11.6845 2.56141 11.4568 2.02091 11.0513 1.6224C10.6459 1.22388 10.096 1 9.52265 1H3.7576C3.18423 1 2.63434 1.22388 2.22891 1.6224C1.82347 2.02091 1.5957 2.56141 1.5957 3.125V15.875C1.5957 16.4386 1.82347 16.9791 2.22891 17.3776C2.63434 17.7761 3.18423 18 3.7576 18H9.52265C10.096 18 10.6459 17.7761 11.0513 17.3776C11.4568 16.9791 11.6845 16.4386 11.6845 15.875V12.3333M8.08139 6.66667L5.19886 9.5M5.19886 9.5L8.08139 12.3333M5.19886 9.5H17.4496" stroke="black" stroke-width="1.5" stroke-linecap="round" stroke-linejoin="round"/>
</svg>
