<svg width="20" height="23" viewBox="0 0 20 23" fill="none" xmlns="http://www.w3.org/2000/svg">
<path d="M17.5 16.6251V11.1001C16.9688 11.2064 16.4375 11.3126 15.9063 11.3126H15.375V17.6876H4.75V10.2501C4.75 7.27512 7.0875 4.93762 10.0625 4.93762C10.1688 3.55637 10.8063 2.38762 11.6563 1.43137C11.3375 1.00637 10.7 0.687622 10.0625 0.687622C8.89375 0.687622 7.9375 1.64387 7.9375 2.81262V3.13137C4.75 4.08762 2.625 6.95637 2.625 10.2501V16.6251L0.5 18.7501V19.8126H19.625V18.7501L17.5 16.6251ZM7.9375 20.8751C7.9375 22.0439 8.89375 23.0001 10.0625 23.0001C11.2313 23.0001 12.1875 22.0439 12.1875 20.8751H7.9375ZM19.625 5.46887C19.625 7.48762 17.925 9.18762 15.9063 9.18762C13.8875 9.18762 12.1875 7.48762 12.1875 5.46887C12.1875 3.45012 13.8875 1.75012 15.9063 1.75012C17.925 1.75012 19.625 3.45012 19.625 5.46887Z" fill="black"/>
</svg>
