<svg width="14" height="16" viewBox="0 0 14 16" fill="none" xmlns="http://www.w3.org/2000/svg">
<path d="M7 12.1905C7.43098 12.1905 7.8443 12.0299 8.14905 11.7442C8.45379 11.4584 8.625 11.0708 8.625 10.6667C8.625 10.2625 8.45379 9.87494 8.14905 9.58917C7.8443 9.3034 7.43098 9.14286 7 9.14286C6.56902 9.14286 6.1557 9.3034 5.85095 9.58917C5.54621 9.87494 5.375 10.2625 5.375 10.6667C5.375 11.0708 5.54621 11.4584 5.85095 11.7442C6.1557 12.0299 6.56902 12.1905 7 12.1905ZM11.875 5.33333C12.306 5.33333 12.7193 5.49388 13.024 5.77965C13.3288 6.06542 13.5 6.453 13.5 6.85714V14.4762C13.5 14.8803 13.3288 15.2679 13.024 15.5537C12.7193 15.8395 12.306 16 11.875 16H2.125C1.69402 16 1.2807 15.8395 0.975951 15.5537C0.671205 15.2679 0.5 14.8803 0.5 14.4762V6.85714C0.5 6.453 0.671205 6.06542 0.975951 5.77965C1.2807 5.49388 1.69402 5.33333 2.125 5.33333H2.9375V3.80952C2.9375 2.79918 3.36551 1.83021 4.12738 1.11578C4.88925 0.401359 5.92256 0 7 0C7.53349 0 8.06177 0.0985363 8.55465 0.289983C9.04754 0.481429 9.49538 0.762037 9.87262 1.11578C10.2499 1.46953 10.5491 1.88949 10.7533 2.35168C10.9574 2.81387 11.0625 3.30925 11.0625 3.80952V5.33333H11.875ZM7 1.52381C6.35353 1.52381 5.73355 1.76463 5.27643 2.19328C4.81931 2.62193 4.5625 3.20331 4.5625 3.80952V5.33333H9.4375V3.80952C9.4375 3.20331 9.18069 2.62193 8.72357 2.19328C8.26645 1.76463 7.64647 1.52381 7 1.52381Z" fill="black"/>
</svg>
