<svg width="18" height="20" viewBox="0 0 18 20" fill="none" xmlns="http://www.w3.org/2000/svg">
<path fill-rule="evenodd" clip-rule="evenodd" d="M8.1989 0.587106C8.44395 0.45104 8.71961 0.379639 8.9999 0.379639C9.28019 0.379639 9.55586 0.45104 9.8009 0.587106L17.0009 4.58711C17.5249 4.87811 17.8499 5.43011 17.8499 6.03011V13.9701C17.8499 14.5701 17.5249 15.1221 17.0009 15.4131L9.8009 19.4131C9.55586 19.5492 9.28019 19.6206 8.9999 19.6206C8.71961 19.6206 8.44395 19.5492 8.1989 19.4131L0.998902 15.4131C0.741526 15.2702 0.527073 15.061 0.377787 14.8073C0.228501 14.5536 0.149819 14.2645 0.149902 13.9701V6.03011C0.149902 5.43011 0.474902 4.87811 0.998902 4.58711L8.1989 0.587106ZM9.0729 1.89911C9.05058 1.88667 9.02545 1.88014 8.9999 1.88014C8.97435 1.88014 8.94922 1.88667 8.9269 1.89911L1.7269 5.89911C1.70371 5.91202 1.68437 5.93086 1.67084 5.9537C1.65731 5.97654 1.65009 6.00256 1.6499 6.02911V13.9701C1.6499 14.0251 1.6799 14.0751 1.7269 14.1021L8.9269 18.1021C8.94922 18.1145 8.97435 18.1211 8.9999 18.1211C9.02545 18.1211 9.05058 18.1145 9.0729 18.1021L16.2729 14.1021C16.2964 14.089 16.3159 14.0699 16.3295 14.0466C16.343 14.0234 16.3501 13.997 16.3499 13.9701V6.03011C16.3499 6.00339 16.3428 5.97717 16.3292 5.95413C16.3157 5.9311 16.2962 5.91211 16.2729 5.89911L9.0729 1.89911Z" fill="#131313"/>
<path fill-rule="evenodd" clip-rule="evenodd" d="M4.25 10C4.25 8.74022 4.75045 7.53204 5.64124 6.64124C6.53204 5.75045 7.74022 5.25 9 5.25C10.2598 5.25 11.468 5.75045 12.3588 6.64124C13.2496 7.53204 13.75 8.74022 13.75 10C13.75 11.2598 13.2496 12.468 12.3588 13.3588C11.468 14.2496 10.2598 14.75 9 14.75C7.74022 14.75 6.53204 14.2496 5.64124 13.3588C4.75045 12.468 4.25 11.2598 4.25 10ZM9 6.75C8.13805 6.75 7.3114 7.09241 6.7019 7.7019C6.09241 8.3114 5.75 9.13805 5.75 10C5.75 10.862 6.09241 11.6886 6.7019 12.2981C7.3114 12.9076 8.13805 13.25 9 13.25C9.86195 13.25 10.6886 12.9076 11.2981 12.2981C11.9076 11.6886 12.25 10.862 12.25 10C12.25 9.13805 11.9076 8.3114 11.2981 7.7019C10.6886 7.09241 9.86195 6.75 9 6.75Z" fill="#131313"/>
</svg>
